# xmcd CD database file
#
# Track frame offsets:
#	150
#	15349
#	29307
#	43546
#	53762
#	64767
#	76061
#	94486
#	106209
#	117574
#	134137
#	147427
#	160707
#	175078
#	186312
#	198804
#	210133
#	225593
#	239945
#	253614
#
# Disc length: 3542 seconds
#
# Revision: 0
# Processed by: cddbd v1.5.2PL0 Copyright (c) Steve Scherf et al.
# Submitted via: CDex 1.95
#
DISCID=120dd414
DTITLE=Various Artist - 60 Country Love Songs Cd 1
DYEAR=2005
DGENRE=Country
TTITLE0=01 - Lay Your Head Upon My Pillow
TTITLE1=02 - Think I'll Send Him Some Roses
TTITLE2=03 - Look What Love Has Done
TTITLE3=04 - Beautiful Love Song
TTITLE4=05 - Hello Darlin
TTITLE5=06 - I'll Hold You Closer Than Love
TTITLE6=07 - Do You Think Of Me
TTITLE7=08 - Please, Don't Tell Me How The Story Ends
TTITLE8=09 - A New Girl In Town
TTITLE9=10 - When My Blues Moon Turns To Gold Again
TTITLE10=11 - Home On The Range
TTITLE11=12 - If Only For A Moment
TTITLE12=13 - Leavin On A Jetplane
TTITLE13=14 - I Wish You Were Here
TTITLE14=15 - Come Sundown
TTITLE15=16 - The Lonesome Truckdrivers Waltz
TTITLE16=17 - Where Have All The Seasons Gone
TTITLE17=18 - Long Story Short
TTITLE18=19 - The Hours Of Seperation
TTITLE19=20 - How Come It Took So Long To Say Goodby
EXTD=YEAR: 2005
EXTT0=
EXTT1=
EXTT2=
EXTT3=
EXTT4=
EXTT5=
EXTT6=
EXTT7=
EXTT8=
EXTT9=
EXTT10=
EXTT11=
EXTT12=
EXTT13=
EXTT14=
EXTT15=
EXTT16=
EXTT17=
EXTT18=
EXTT19=
PLAYORDER=
